<svg width="155" height="20" viewBox="0 0 155 20" fill="none" xmlns="http://www.w3.org/2000/svg">
<path d="M1 11V19H19V11" stroke="#8376E2" stroke-linecap="round" stroke-linejoin="round"/>
<path d="M10 1V13M10 13L13 10M10 13L7 10" stroke="#8376E2" stroke-linecap="round" stroke-linejoin="round"/>
<path d="M36.4473 9.90723C36.4473 11.557 35.9893 12.8193 35.0732 13.6943C34.1572 14.5648 32.8379 15 31.1152 15H28.3193V5.00586H31.4092C32.9997 5.00586 34.237 5.43424 35.1211 6.29102C36.0052 7.14779 36.4473 8.35319 36.4473 9.90723ZM34.7246 9.96191C34.7246 7.56934 33.6058 6.37305 31.3682 6.37305H29.9531V13.626H31.1152C33.5215 13.626 34.7246 12.4046 34.7246 9.96191ZM41.7314 15.1367C40.5557 15.1367 39.6351 14.7949 38.9697 14.1113C38.3089 13.4232 37.9785 12.4775 37.9785 11.2744C37.9785 10.0394 38.2861 9.06868 38.9014 8.3623C39.5166 7.65592 40.362 7.30273 41.4375 7.30273C42.4355 7.30273 43.224 7.60579 43.8027 8.21191C44.3815 8.81803 44.6709 9.65202 44.6709 10.7139V11.582H39.6328C39.6556 12.3158 39.8538 12.8809 40.2275 13.2773C40.6012 13.6693 41.1276 13.8652 41.8066 13.8652C42.2533 13.8652 42.668 13.8242 43.0508 13.7422C43.4382 13.6556 43.8529 13.5143 44.2949 13.3184V14.624C43.903 14.8109 43.5065 14.943 43.1055 15.0205C42.7044 15.098 42.2464 15.1367 41.7314 15.1367ZM41.4375 8.51953C40.9271 8.51953 40.5169 8.68132 40.207 9.00488C39.9017 9.32845 39.7194 9.80013 39.6602 10.4199H43.0918C43.0827 9.79557 42.9323 9.32389 42.6406 9.00488C42.349 8.68132 41.9479 8.51953 41.4375 8.51953ZM50.3311 15.1367C49.374 15.1367 48.6312 14.7926 48.1025 14.1045H48.0068C48.0706 14.7425 48.1025 15.1299 48.1025 15.2666V18.3633H46.4961V7.43945H47.7949C47.8314 7.58073 47.9066 7.91797 48.0205 8.45117H48.1025C48.6038 7.68555 49.3558 7.30273 50.3584 7.30273C51.3018 7.30273 52.0355 7.64453 52.5596 8.32812C53.0882 9.01172 53.3525 9.97103 53.3525 11.2061C53.3525 12.4411 53.0837 13.4049 52.5459 14.0977C52.0127 14.7904 51.2744 15.1367 50.3311 15.1367ZM49.9414 8.61523C49.3034 8.61523 48.8363 8.80208 48.54 9.17578C48.2484 9.54948 48.1025 10.1465 48.1025 10.9668V11.2061C48.1025 12.1266 48.2484 12.7943 48.54 13.209C48.8317 13.6191 49.3079 13.8242 49.9688 13.8242C50.5247 13.8242 50.9531 13.5964 51.2539 13.1406C51.5547 12.6849 51.7051 12.0355 51.7051 11.1924C51.7051 10.3447 51.5547 9.70443 51.2539 9.27148C50.9577 8.83398 50.5202 8.61523 49.9414 8.61523ZM61.9248 11.2061C61.9248 12.4411 61.6081 13.4049 60.9746 14.0977C60.3411 14.7904 59.4593 15.1367 58.3291 15.1367C57.6227 15.1367 56.9984 14.9772 56.4561 14.6582C55.9137 14.3392 55.4967 13.8812 55.2051 13.2842C54.9134 12.6872 54.7676 11.9945 54.7676 11.2061C54.7676 9.98014 55.082 9.02311 55.7109 8.33496C56.3398 7.64681 57.2262 7.30273 58.3701 7.30273C59.4639 7.30273 60.3298 7.65592 60.9678 8.3623C61.6058 9.06413 61.9248 10.012 61.9248 11.2061ZM56.4219 11.2061C56.4219 12.9515 57.0667 13.8242 58.3564 13.8242C59.6325 13.8242 60.2705 12.9515 60.2705 11.2061C60.2705 9.47884 59.6279 8.61523 58.3428 8.61523C57.6683 8.61523 57.1784 8.83854 56.873 9.28516C56.5723 9.73177 56.4219 10.3721 56.4219 11.2061ZM68.8564 12.8467C68.8564 13.585 68.5876 14.1523 68.0498 14.5488C67.512 14.9408 66.7419 15.1367 65.7393 15.1367C64.7321 15.1367 63.9232 14.984 63.3125 14.6787V13.291C64.2012 13.7012 65.0283 13.9062 65.7939 13.9062C66.7829 13.9062 67.2773 13.6077 67.2773 13.0107C67.2773 12.8193 67.2227 12.6598 67.1133 12.5322C67.0039 12.4046 66.8239 12.2725 66.5732 12.1357C66.3226 11.999 65.974 11.8441 65.5273 11.6709C64.6569 11.3337 64.0667 10.9964 63.7568 10.6592C63.4515 10.3219 63.2988 9.88444 63.2988 9.34668C63.2988 8.69954 63.5586 8.19824 64.0781 7.84277C64.6022 7.48275 65.3132 7.30273 66.2109 7.30273C67.0996 7.30273 67.9404 7.48275 68.7334 7.84277L68.2139 9.05273C67.3981 8.71549 66.7122 8.54688 66.1562 8.54688C65.3086 8.54688 64.8848 8.78841 64.8848 9.27148C64.8848 9.50846 64.9941 9.70898 65.2129 9.87305C65.4362 10.0371 65.9193 10.2627 66.6621 10.5498C67.2865 10.7913 67.7399 11.0124 68.0225 11.2129C68.305 11.4134 68.5146 11.6458 68.6514 11.9102C68.7881 12.1699 68.8564 12.4821 68.8564 12.8467ZM72.2061 15H70.5996V7.43945H72.2061V15ZM70.5039 5.43652C70.5039 5.14941 70.5814 4.92839 70.7363 4.77344C70.8958 4.61849 71.1214 4.54102 71.4131 4.54102C71.6956 4.54102 71.9144 4.61849 72.0693 4.77344C72.2288 4.92839 72.3086 5.14941 72.3086 5.43652C72.3086 5.70996 72.2288 5.92643 72.0693 6.08594C71.9144 6.24089 71.6956 6.31836 71.4131 6.31836C71.1214 6.31836 70.8958 6.24089 70.7363 6.08594C70.5814 5.92643 70.5039 5.70996 70.5039 5.43652ZM77.3262 13.8379C77.7181 13.8379 78.11 13.7764 78.502 13.6533V14.8633C78.3242 14.9408 78.0941 15.0046 77.8115 15.0547C77.5335 15.1094 77.2441 15.1367 76.9434 15.1367C75.4212 15.1367 74.6602 14.3346 74.6602 12.7305V8.65625H73.6279V7.94531L74.7354 7.35742L75.2822 5.75781H76.2734V7.43945H78.4268V8.65625H76.2734V12.7031C76.2734 13.0905 76.3691 13.3776 76.5605 13.5645C76.7565 13.7467 77.0117 13.8379 77.3262 13.8379ZM83.3213 15.1367C82.1455 15.1367 81.2249 14.7949 80.5596 14.1113C79.8988 13.4232 79.5684 12.4775 79.5684 11.2744C79.5684 10.0394 79.876 9.06868 80.4912 8.3623C81.1064 7.65592 81.9518 7.30273 83.0273 7.30273C84.0254 7.30273 84.8138 7.60579 85.3926 8.21191C85.9714 8.81803 86.2607 9.65202 86.2607 10.7139V11.582H81.2227C81.2454 12.3158 81.4437 12.8809 81.8174 13.2773C82.1911 13.6693 82.7174 13.8652 83.3965 13.8652C83.8431 13.8652 84.2578 13.8242 84.6406 13.7422C85.028 13.6556 85.4427 13.5143 85.8848 13.3184V14.624C85.4928 14.8109 85.0964 14.943 84.6953 15.0205C84.2943 15.098 83.8363 15.1367 83.3213 15.1367ZM83.0273 8.51953C82.5169 8.51953 82.1068 8.68132 81.7969 9.00488C81.4915 9.32845 81.3092 9.80013 81.25 10.4199H84.6816C84.6725 9.79557 84.5221 9.32389 84.2305 9.00488C83.9388 8.68132 83.5378 8.51953 83.0273 8.51953Z" fill="#31456A"/>
<path d="M113.082 11.9307C113.082 12.5505 112.85 13.0632 112.385 13.4688C111.92 13.8698 111.271 14.1227 110.437 14.2275V15.8135H109.555V14.2891C109.044 14.2891 108.55 14.2503 108.071 14.1729C107.593 14.0908 107.201 13.9792 106.896 13.8379V12.7715C107.274 12.9401 107.709 13.0791 108.201 13.1885C108.698 13.2933 109.149 13.3457 109.555 13.3457V10.3379C108.62 10.0417 107.964 9.69759 107.586 9.30566C107.212 8.91374 107.025 8.40788 107.025 7.78809C107.025 7.19108 107.256 6.70117 107.716 6.31836C108.181 5.93555 108.794 5.70312 109.555 5.62109V4.37695H110.437V5.60742C111.275 5.63021 112.084 5.79883 112.863 6.11328L112.508 7.00879C111.829 6.73991 111.138 6.5804 110.437 6.53027V9.49707C111.152 9.72493 111.688 9.94824 112.043 10.167C112.398 10.3812 112.66 10.6296 112.829 10.9121C112.998 11.1901 113.082 11.5296 113.082 11.9307ZM111.92 12.0195C111.92 11.6914 111.817 11.4271 111.612 11.2266C111.412 11.0215 111.02 10.8187 110.437 10.6182V13.2773C111.425 13.1406 111.92 12.7214 111.92 12.0195ZM108.181 7.77441C108.181 8.12077 108.283 8.39876 108.488 8.6084C108.693 8.81803 109.049 9.01628 109.555 9.20312V6.55762C109.104 6.63053 108.762 6.77409 108.529 6.98828C108.297 7.19792 108.181 7.45996 108.181 7.77441ZM120.889 7.35742C120.889 7.99544 120.709 8.51725 120.349 8.92285C119.993 9.32845 119.487 9.59961 118.831 9.73633V9.79102C119.633 9.89128 120.228 10.1465 120.615 10.5566C121.003 10.9668 121.196 11.5046 121.196 12.1699C121.196 13.1224 120.866 13.8561 120.205 14.3711C119.544 14.8815 118.605 15.1367 117.389 15.1367C116.86 15.1367 116.375 15.0957 115.933 15.0137C115.495 14.9362 115.069 14.7972 114.654 14.5967V13.5166C115.087 13.7308 115.548 13.8949 116.035 14.0088C116.527 14.1182 116.992 14.1729 117.43 14.1729C119.157 14.1729 120.021 13.4961 120.021 12.1426C120.021 10.9303 119.068 10.3242 117.163 10.3242H116.179V9.34668H117.177C117.956 9.34668 118.574 9.17578 119.029 8.83398C119.485 8.48763 119.713 8.00911 119.713 7.39844C119.713 6.91081 119.544 6.52799 119.207 6.25C118.874 5.97201 118.421 5.83301 117.847 5.83301C117.409 5.83301 116.997 5.89225 116.609 6.01074C116.222 6.12923 115.78 6.34798 115.283 6.66699L114.709 5.90137C115.119 5.5778 115.591 5.32487 116.124 5.14258C116.662 4.95573 117.227 4.8623 117.819 4.8623C118.79 4.8623 119.544 5.08561 120.082 5.53223C120.62 5.97428 120.889 6.58268 120.889 7.35742ZM129.276 15H122.707V14.0225L125.339 11.377C126.141 10.5658 126.67 9.98698 126.925 9.64062C127.18 9.29427 127.371 8.95703 127.499 8.62891C127.627 8.30078 127.69 7.94759 127.69 7.56934C127.69 7.03613 127.529 6.61458 127.205 6.30469C126.882 5.99023 126.433 5.83301 125.858 5.83301C125.444 5.83301 125.049 5.90137 124.676 6.03809C124.307 6.1748 123.894 6.42318 123.438 6.7832L122.837 6.01074C123.757 5.24512 124.76 4.8623 125.845 4.8623C126.784 4.8623 127.52 5.10384 128.053 5.58691C128.586 6.06543 128.853 6.71029 128.853 7.52148C128.853 8.15495 128.675 8.78158 128.319 9.40137C127.964 10.0212 127.299 10.805 126.323 11.7529L124.136 13.8926V13.9473H129.276V15ZM137.343 9.98926C137.343 11.7165 137.069 13.0062 136.522 13.8584C135.98 14.7106 135.148 15.1367 134.027 15.1367C132.952 15.1367 132.134 14.7015 131.573 13.8311C131.013 12.9561 130.732 11.6755 130.732 9.98926C130.732 8.24837 131.004 6.95638 131.546 6.11328C132.088 5.27018 132.915 4.84863 134.027 4.84863C135.112 4.84863 135.935 5.28841 136.495 6.16797C137.06 7.04753 137.343 8.32129 137.343 9.98926ZM131.881 9.98926C131.881 11.443 132.052 12.5026 132.394 13.168C132.735 13.8288 133.28 14.1592 134.027 14.1592C134.784 14.1592 135.331 13.8242 135.668 13.1543C136.01 12.4798 136.181 11.4248 136.181 9.98926C136.181 8.55371 136.01 7.50326 135.668 6.83789C135.331 6.16797 134.784 5.83301 134.027 5.83301C133.28 5.83301 132.735 6.16341 132.394 6.82422C132.052 7.48047 131.881 8.53548 131.881 9.98926ZM145.354 9.98926C145.354 11.7165 145.081 13.0062 144.534 13.8584C143.992 14.7106 143.16 15.1367 142.039 15.1367C140.964 15.1367 140.146 14.7015 139.585 13.8311C139.024 12.9561 138.744 11.6755 138.744 9.98926C138.744 8.24837 139.015 6.95638 139.558 6.11328C140.1 5.27018 140.927 4.84863 142.039 4.84863C143.124 4.84863 143.946 5.28841 144.507 6.16797C145.072 7.04753 145.354 8.32129 145.354 9.98926ZM139.893 9.98926C139.893 11.443 140.063 12.5026 140.405 13.168C140.747 13.8288 141.292 14.1592 142.039 14.1592C142.796 14.1592 143.342 13.8242 143.68 13.1543C144.021 12.4798 144.192 11.4248 144.192 9.98926C144.192 8.55371 144.021 7.50326 143.68 6.83789C143.342 6.16797 142.796 5.83301 142.039 5.83301C141.292 5.83301 140.747 6.16341 140.405 6.82422C140.063 7.48047 139.893 8.53548 139.893 9.98926ZM153.366 9.98926C153.366 11.7165 153.093 13.0062 152.546 13.8584C152.004 14.7106 151.172 15.1367 150.051 15.1367C148.975 15.1367 148.157 14.7015 147.597 13.8311C147.036 12.9561 146.756 11.6755 146.756 9.98926C146.756 8.24837 147.027 6.95638 147.569 6.11328C148.112 5.27018 148.939 4.84863 150.051 4.84863C151.135 4.84863 151.958 5.28841 152.519 6.16797C153.084 7.04753 153.366 8.32129 153.366 9.98926ZM147.904 9.98926C147.904 11.443 148.075 12.5026 148.417 13.168C148.759 13.8288 149.303 14.1592 150.051 14.1592C150.807 14.1592 151.354 13.8242 151.691 13.1543C152.033 12.4798 152.204 11.4248 152.204 9.98926C152.204 8.55371 152.033 7.50326 151.691 6.83789C151.354 6.16797 150.807 5.83301 150.051 5.83301C149.303 5.83301 148.759 6.16341 148.417 6.82422C148.075 7.48047 147.904 8.53548 147.904 9.98926Z" fill="#4AB5E3"/>
</svg>
