<svg version="1.2" xmlns="http://www.w3.org/2000/svg" viewBox="0 0 276 86" width="276" height="86"><style>.a{fill:#fff}.b{fill:#212832}.c{fill:#696d76}.d{fill:#da6464}</style><path class="a" d="m0 13c0-6.6 5.4-12 12-12h252c6.6 0 12 5.4 12 12v62c0 6.6-5.4 12-12 12h-252c-6.6 0-12-5.4-12-12z"/><path fill-rule="evenodd" class="b" d="m70.9 32.3c-1.1 0-1.7 0.5-1.7 1.3 0 0.8 0.9 1.1 1.5 1.3l0.9 0.2c1.1 0.3 2.5 0.9 2.5 2.5 0 1.5-1.2 2.5-3.2 2.5-2 0-3.2-0.9-3.3-2.5h1.3c0.1 0.9 1 1.4 2 1.4 1.1 0 1.9-0.6 1.9-1.4 0-0.8-0.7-1.1-1.6-1.4l-1.1-0.2c-1.4-0.4-2.3-1.1-2.3-2.3 0-1.5 1.4-2.5 3.1-2.5 1.8 0 3 1 3.1 2.4h-1.3c-0.1-0.8-0.8-1.3-1.8-1.3zm4.4 4.5c0-2 1.2-3.4 3-3.4 1.5 0 2.9 0.9 2.9 3.3v0.4h-4.6c0 1.3 0.7 2 1.8 2 0.7 0 1.3-0.3 1.5-1l1.2 0.3c-0.3 1-1.3 1.7-2.7 1.7-1.9 0-3.1-1.3-3.1-3.3zm4.7-0.6c0-1-0.7-1.8-1.7-1.8-1 0-1.7 0.8-1.7 1.8zm3.9 3.8h-1.3v-6.5h1.2v1h0.1c0.3-0.7 1-1.1 2-1.1 1.3 0 2.2 0.8 2.2 2.4v4.2h-1.3v-4c0-1-0.5-1.5-1.4-1.5-0.9 0-1.5 0.6-1.5 1.6zm5.6-3.2c0-2.2 1.2-3.4 2.8-3.4 1.2 0 1.6 0.7 1.8 1.1h0.1v-3.2h1.3v8.7h-1.3v-1h-0.1c-0.2 0.4-0.7 1.1-1.9 1.1-1.5 0-2.7-1.2-2.7-3.3zm4.7-0.1c0-1.3-0.6-2.2-1.7-2.2-1.1 0-1.7 0.9-1.7 2.2 0 1.4 0.6 2.4 1.7 2.4 1.1 0 1.7-1 1.7-2.4zm8-5.4l2.8 6.8h0.1l2.7-6.8h1.6v8.7h-1.2v-6.3h-0.1l-2.6 6.3h-1l-2.6-6.3h-0.1v6.3h-1.2v-8.7zm8.8 5.5c0-2.1 1.2-3.4 3-3.4 1.9 0 3.1 1.3 3.1 3.4 0 2-1.2 3.3-3.1 3.3-1.8 0-3-1.3-3-3.3zm4.8 0c0-1.3-0.6-2.4-1.8-2.4-1.2 0-1.8 1.1-1.8 2.4 0 1.2 0.6 2.3 1.8 2.3 1.2 0 1.8-1.1 1.8-2.3zm4 3.2h-1.3v-6.5h1.2v1h0.1c0.3-0.7 0.9-1.1 1.9-1.1 1.4 0 2.2 0.8 2.2 2.5v4.1h-1.2v-4c0-0.9-0.6-1.5-1.4-1.5-0.9 0-1.5 0.6-1.5 1.6zm5.6-3.2c0-2 1.2-3.4 3-3.4 1.5 0 2.9 0.9 2.9 3.3v0.4h-4.7c0.1 1.3 0.8 2 1.9 2 0.7 0 1.3-0.3 1.5-0.9l1.2 0.2c-0.3 1.1-1.3 1.8-2.7 1.8-2 0-3.1-1.4-3.1-3.4zm4.6-0.6c0-1-0.6-1.8-1.6-1.8-1 0-1.7 0.9-1.8 1.8zm2.4 6.1l0.3-1c0.7 0.2 1.2 0.1 1.5-0.8l0.2-0.4-2.4-6.6h1.3l1.7 5.1h0.1l1.6-5.1h1.4l-2.7 7.4c-0.4 1-1 1.6-2.1 1.6-0.4 0-0.7-0.1-0.9-0.2z"/><path fill-rule="evenodd" class="c" d="m67.3 57l2.6-7.3h0.9l2.7 7.3h-0.9l-0.7-2.1h-3l-0.7 2.1zm4.3-2.8l-1.2-3.3-1.2 3.3zm3-2.7h0.9v5.5h-0.9zm-0.1-1.5c0-0.3 0.2-0.5 0.5-0.5 0.4 0 0.6 0.2 0.6 0.5 0 0.3-0.2 0.6-0.6 0.6-0.3 0-0.5-0.3-0.5-0.6zm2.5 1.5h0.8v0.8h0.1c0.2-0.5 0.7-0.9 1.4-0.9 0.1 0 0.3 0 0.4 0v0.9c0 0-0.3-0.1-0.5-0.1-0.8 0-1.4 0.6-1.4 1.3v3.5h-0.8zm3.8-1.9h0.9v2.7c0.2-0.3 0.5-0.9 1.6-0.9 1.4 0 2.3 1.1 2.3 2.8 0 1.7-0.9 2.8-2.3 2.8-1 0-1.4-0.6-1.6-0.9h-0.1v0.8h-0.8zm2.4 6.6c1.1 0 1.6-0.9 1.6-2 0-1.2-0.5-2.1-1.6-2.1-1 0-1.5 0.8-1.5 2.1 0 1.2 0.5 2 1.5 2zm4.6 0.7h-0.9v-5.5h0.8v0.9h0.1c0.3-0.6 0.8-0.9 1.6-0.9 1.1 0 1.8 0.6 1.8 2v3.5h-0.8v-3.4c0-0.9-0.5-1.4-1.2-1.4-0.8 0-1.4 0.5-1.4 1.5zm5.1-7.3h0.8v2.7h0.1c0.2-0.3 0.5-0.9 1.6-0.9 1.4 0 2.3 1.1 2.3 2.8 0 1.7-0.9 2.8-2.3 2.8-1.1 0-1.4-0.6-1.6-0.9h-0.1v0.8h-0.8zm2.4 6.6c1 0 1.6-0.9 1.6-2.1 0-1.1-0.6-2-1.6-2-1 0-1.6 0.8-1.6 2 0 1.3 0.6 2.1 1.6 2.1zm6.6-6.6h2.5c1.7 0 2.4 1 2.4 2.3 0 1.3-0.7 2.3-2.4 2.3h-1.6v2.7h-0.9zm2.5 3.8c1.1 0 1.6-0.7 1.6-1.5 0-0.9-0.5-1.5-1.7-1.5h-1.5v3zm3.5 1.9c0-1.3 1.1-1.5 2.1-1.6 1-0.1 1.5-0.1 1.5-0.5 0-0.7-0.4-1.1-1.2-1.1-0.8 0-1.2 0.4-1.4 0.8l-0.8-0.3c0.4-1 1.3-1.3 2.2-1.3 0.7 0 2 0.2 2 2v3.5h-0.8v-0.7h-0.1c-0.2 0.4-0.7 0.9-1.6 0.9-1 0-1.9-0.6-1.9-1.7zm3.6-0.4v-0.8c-0.2 0.2-1.1 0.3-1.5 0.3-0.7 0.1-1.2 0.3-1.2 0.9 0 0.6 0.4 0.9 1.1 0.9 1 0 1.6-0.6 1.6-1.3zm2.1 3.9l0.2-0.7c0.6 0.1 1 0 1.3-0.8l0.1-0.4-2-5.5h0.9l1.5 4.3h0.1l1.5-4.3h0.9l-2.3 6.2q-0.5 1.3-1.6 1.3c-0.3 0-0.6-0.1-0.6-0.1zm5.6-7.4h0.8v0.8h0.1c0.2-0.5 0.7-0.9 1.4-0.9 0.8 0 1.2 0.4 1.5 0.9h0.1c0.2-0.5 0.8-0.9 1.6-0.9 1 0 1.7 0.6 1.7 1.9v3.6h-0.9v-3.6c0-0.8-0.5-1.1-1.1-1.1-0.8 0-1.2 0.5-1.2 1.2v3.5h-0.8v-3.7c0-0.6-0.5-1-1.1-1-0.7 0-1.3 0.5-1.3 1.3v3.4h-0.8zm8.4 2.8c0-1.7 1-2.8 2.5-2.8 1.1 0 2.3 0.7 2.3 2.7v0.4h-3.9c0 1.1 0.7 1.8 1.7 1.8 0.6 0 1.1-0.3 1.3-0.9l0.9 0.2c-0.3 0.9-1.1 1.4-2.2 1.4-1.6 0-2.6-1.1-2.6-2.8zm4-0.5c0-0.9-0.6-1.6-1.5-1.6-1 0-1.6 0.8-1.6 1.6zm2.9 3.2h-0.8v-5.5h0.8v0.9h0.1c0.2-0.6 0.8-0.9 1.6-0.9 1.1 0 1.8 0.6 1.8 2v3.5h-0.8v-3.4c0-0.9-0.5-1.4-1.3-1.4-0.8 0-1.4 0.6-1.4 1.5zm7.4-4.7h-1.1v3.2c0 0.7 0.3 0.8 0.7 0.8q0.3 0 0.4-0.1l0.1 0.8c-0.1 0-0.3 0.1-0.6 0.1-0.7 0-1.5-0.5-1.5-1.4v-3.4h-0.8v-0.7h0.8v-1.3h0.9v1.3h1.1z"/><path fill-rule="evenodd" class="b" d="m217.2 36.8h-5.1v-1.2h5.1zm10.2 5.3c-2.2-0.1-3.5-1.4-3.7-3.1h1.5c0.1 1.1 1.1 1.7 2.2 1.9v-4.3l-0.4-0.2c-1.8-0.5-3-1.4-3-3 0-1.8 1.5-3 3.4-3.2v-1.3h1v1.3c2 0.1 3.5 1.4 3.5 3h-1.3c-0.1-1-1-1.7-2.2-1.8v4.1l0.4 0.1c1.2 0.3 3.3 1 3.3 3.2 0 1.8-1.3 3.2-3.7 3.3v1.3h-1zm3.3-3.4c0-1.1-1-1.6-2.3-1.9v4c1.4-0.1 2.3-0.9 2.3-2.1zm-3.3-7.3c-1.2 0.2-2 0.9-2 1.9 0 1.2 1.2 1.6 2 1.9zm6.6 5.1c0-4.1 1.6-6.4 4.3-6.4 1.9 0 3.3 1.3 3.6 3.1h-1.4c-0.3-1.1-1-1.9-2.2-1.9-1.8 0-2.9 1.7-2.9 4.5 0.7-0.9 1.7-1.5 2.9-1.5 2 0 3.7 1.6 3.7 3.8 0 2.2-1.6 4-3.9 3.9-1.9 0-4.1-1.2-4.1-5.5zm6.6 1.6c0-1.4-1-2.6-2.5-2.6-1.4 0-2.5 1.3-2.5 2.7 0 1.4 1 2.6 2.5 2.6 1.4 0 2.5-1.2 2.5-2.7zm3.4-2c0-3.8 1.5-6 4-6 2.5 0 4 2.2 4 6 0 3.8-1.4 5.9-4 5.9-2.6 0-4-2.1-4-5.9zm6.7 0c0-3.1-1-4.8-2.7-4.8-1.7 0-2.7 1.7-2.7 4.8 0 3 1 4.7 2.7 4.7 1.7 0 2.7-1.7 2.7-4.7zm3.3 0c0-3.8 1.5-6 4-6 2.5 0 4 2.2 4 6 0 3.8-1.4 5.9-4 5.9-2.6 0-4-2.1-4-5.9zm6.7 0c0-3.1-1-4.8-2.7-4.8-1.7 0-2.7 1.7-2.7 4.8 0 3 1 4.7 2.7 4.7 1.7 0 2.7-1.7 2.7-4.7z"/><path fill-rule="evenodd" class="c" d="m232.7 52.4c-1 0-1.6 0.5-1.6 1.2 0 0.8 0.9 1.1 1.4 1.2l0.7 0.2c0.8 0.2 2.1 0.7 2.1 2 0 1.2-1 2.1-2.6 2.1-1.6 0-2.6-0.8-2.7-2h1c0 0.8 0.8 1.2 1.7 1.2 1 0 1.7-0.5 1.7-1.3 0-0.7-0.6-1-1.4-1.2l-0.9-0.3c-1.1-0.3-1.9-0.9-1.9-1.8 0-1.3 1.1-2.1 2.5-2.1 1.4 0 2.4 0.8 2.5 1.9h-0.9c-0.1-0.7-0.7-1.1-1.6-1.1zm3.7 3.9c0-1.7 0.9-2.8 2.4-2.8 1.2 0 2.4 0.7 2.4 2.7v0.4h-4c0 1.1 0.7 1.8 1.7 1.8 0.7 0 1.2-0.3 1.4-0.9l0.8 0.2c-0.3 0.9-1.1 1.4-2.2 1.4-1.6 0-2.5-1.1-2.5-2.8zm3.9-0.5c0-0.9-0.6-1.6-1.5-1.6-0.9 0-1.5 0.8-1.6 1.6zm2.1-2.3h0.8v0.9h0.1c0.2-0.3 0.6-0.9 1.6-0.9 1.4 0 2.3 1.1 2.3 2.8 0 1.7-0.9 2.8-2.3 2.8-1 0-1.4-0.6-1.6-0.9v2.8h-0.9zm2.4 4.9c1.1 0 1.6-1 1.6-2.1 0-1.2-0.5-2.1-1.6-2.1-1 0-1.5 0.9-1.5 2.1 0 1.2 0.5 2.1 1.5 2.1zm6.5 0l2.4-2.7c0.9-0.9 1.3-1.4 1.3-2.1 0-0.7-0.6-1.2-1.4-1.2-0.9 0-1.4 0.5-1.4 1.4h-0.8c0-1.3 0.9-2.2 2.2-2.2 1.3 0 2.2 0.9 2.2 2 0 0.9-0.4 1.5-1.6 2.8l-1.7 1.8h3.4v0.8h-4.6zm6.1-1.2h0.9c0 0.7 0.7 1.2 1.5 1.2 1 0 1.6-0.6 1.6-1.3 0-0.8-0.6-1.4-1.7-1.4h-0.6v-0.8h0.6c0.9 0 1.5-0.5 1.5-1.2 0-0.8-0.5-1.3-1.3-1.3-0.8 0-1.5 0.5-1.5 1.2h-0.9c0.1-1.2 1.1-1.9 2.4-1.9 1.3 0 2.1 0.9 2.1 1.9 0 0.8-0.4 1.4-1.2 1.7 0.9 0.2 1.5 0.8 1.5 1.8 0 1.2-1.1 2-2.5 2-1.4 0-2.4-0.7-2.4-1.9z"/><g style="opacity:.1"><path class="d" d="m13 32c0-4.4 3.6-8 8-8h24c4.4 0 8 3.6 8 8v24c0 4.4-3.6 8-8 8h-24c-4.4 0-8-3.6-8-8z"/></g><path class="d" d="m30.3 48.7v3.8c0 0.3 0.2 0.5 0.4 0.6q0.1 0.1 0.2 0.1c0.2 0 0.4-0.1 0.5-0.3l2.3-3.1z"/><path class="d" d="m42.7 34.1c-0.2-0.1-0.4-0.1-0.6 0l-18.8 9.8c-0.2 0.1-0.3 0.3-0.3 0.6 0 0.2 0.2 0.4 0.4 0.5l5.2 1.8 11.1-9.5-8.6 10.3 8.8 3q0.1 0.1 0.2 0.1 0.2 0 0.3-0.1 0.3-0.2 0.3-0.5l2.3-15.4c0-0.2-0.1-0.4-0.3-0.6z"/></svg>