<svg version="1.2" xmlns="http://www.w3.org/2000/svg" viewBox="0 0 155 20" width="155" height="20"><style>.a{fill:#fff}.b{fill:none;stroke:#8376e2;stroke-linecap:round;stroke-linejoin:round}.c{fill:#31456a}.d{fill:#4ab5e3}</style><path class="a" d="m-8-7c0-3.3 2.7-6 6-6h162c3.3 0 6 2.7 6 6v34c0 3.3-2.7 6-6 6h-162c-3.3 0-6-2.7-6-6z"/><path class="b" d="m2 11v8h18v-8"/><path class="b" d="m11 1v12"/><path class="b" d="m11 13l3-3"/><path class="b" d="m11 13l-3-3"/><path fill-rule="evenodd" class="c" d="m37.4 9.9q0 2.5-1.3 3.8-1.4 1.3-4 1.3h-2.8v-10h3.1q2.4 0 3.7 1.3 1.3 1.3 1.3 3.6zm-1.7 0.1q0-3.6-3.3-3.6h-1.4v7.2h1.1q3.6 0 3.6-3.6zm7 5.1q-1.7 0-2.7-1-1-1-1-2.8 0-1.9 0.9-2.9 0.9-1.1 2.5-1.1 1.5 0 2.4 0.9 0.9 0.9 0.9 2.5v0.9h-5.1q0.1 1.1 0.6 1.7 0.6 0.6 1.6 0.6 0.7 0 1.3-0.2 0.5-0.1 1.2-0.4v1.3q-0.6 0.3-1.2 0.4-0.6 0.1-1.4 0.1zm-0.3-6.6q-0.7 0-1.2 0.5-0.5 0.5-0.5 1.4h3.4q0-0.9-0.5-1.4-0.4-0.5-1.2-0.5zm8.9 6.6q-1.4 0-2.2-1h-0.1q0.1 1 0.1 1.2v3.1h-1.6v-11h1.3q0 0.3 0.2 1.1h0.1q0.8-1.2 2.3-1.2 1.4 0 2.2 1 0.8 1.1 0.8 2.9 0 1.9-0.9 2.9-0.8 1-2.2 1zm-0.4-6.5q-0.9 0-1.4 0.6-0.4 0.5-0.4 1.8v0.2q0 1.4 0.4 2 0.5 0.6 1.5 0.6 0.8 0 1.3-0.7 0.4-0.6 0.4-1.9 0-1.3-0.4-1.9-0.5-0.7-1.4-0.7zm12 2.6q0 1.9-0.9 2.9-1 1-2.7 1-1 0-1.8-0.4-0.9-0.5-1.3-1.4-0.4-0.9-0.4-2.1 0-1.8 0.9-2.9 1-1 2.7-1 1.6 0 2.6 1.1 0.9 1 0.9 2.8zm-5.5 0q0 2.6 2 2.6 1.9 0 1.9-2.6 0-2.6-2-2.6-1 0-1.4 0.7-0.5 0.7-0.5 1.9zm12.5 1.6q0 1.2-0.9 1.7-0.8 0.6-2.3 0.6-1.5 0-2.4-0.4v-1.4q1.3 0.6 2.5 0.6 1.5 0 1.5-0.9 0-0.3-0.2-0.5-0.2-0.2-0.5-0.4-0.4-0.2-1.1-0.4-1.3-0.5-1.7-1-0.5-0.5-0.5-1.4 0-0.9 0.8-1.5 0.8-0.5 2.1-0.5 1.3 0 2.5 0.5l-0.5 1.3q-1.2-0.6-2-0.6-1.3 0-1.3 0.8 0 0.3 0.3 0.6 0.3 0.2 1.5 0.6 0.9 0.4 1.3 0.7 0.4 0.3 0.7 0.7 0.2 0.4 0.2 0.9zm3.3 2.2h-1.6v-7.6h1.6zm-1.7-9.5q0-0.5 0.2-0.7 0.3-0.2 0.7-0.2 0.4 0 0.7 0.2 0.2 0.2 0.2 0.7 0 0.4-0.2 0.6-0.3 0.3-0.7 0.3-0.4 0-0.7-0.3-0.2-0.2-0.2-0.6zm6.8 8.4q0.6 0 1.2-0.2v1.2q-0.3 0.1-0.7 0.2-0.4 0.1-0.9 0.1-2.2 0-2.2-2.4v-4.1h-1.1v-0.7l1.1-0.6 0.6-1.6h1v1.7h2.1v1.2h-2.1v4q0 0.6 0.3 0.9 0.3 0.3 0.7 0.3zm6 1.3q-1.7 0-2.7-1-1-1.1-1-2.9 0-1.8 0.9-2.9 0.9-1.1 2.5-1.1 1.5 0 2.4 1 0.9 0.9 0.9 2.5v0.8h-5.1q0.1 1.1 0.6 1.7 0.6 0.6 1.6 0.6 0.7 0 1.2-0.1 0.6-0.1 1.3-0.4v1.3q-0.6 0.2-1.2 0.4-0.6 0.1-1.4 0.1zm-0.3-6.6q-0.7 0-1.2 0.4-0.5 0.5-0.6 1.5h3.5q0-1-0.5-1.5-0.4-0.4-1.2-0.4z"/><path fill-rule="evenodd" class="d" d="m114.1 11.9q0 1-0.7 1.6-0.7 0.6-2 0.7v1.6h-0.8v-1.5q-0.8 0-1.5-0.1-0.7-0.2-1.2-0.4v-1q0.6 0.2 1.3 0.4 0.7 0.1 1.4 0.1v-3q-1.4-0.4-2-1-0.6-0.6-0.6-1.5 0-0.9 0.7-1.5 0.7-0.6 1.9-0.7v-1.2h0.8v1.2q1.3 0 2.5 0.5l-0.4 0.9q-1-0.4-2.1-0.5v3q1.1 0.3 1.6 0.7 0.6 0.3 0.8 0.7 0.3 0.4 0.3 1zm-1.2 0.1q0-0.5-0.3-0.8-0.3-0.3-1.2-0.6v2.7q1.5-0.2 1.5-1.3zm-3.7-4.2q0 0.5 0.3 0.8 0.3 0.3 1.1 0.6v-2.6q-0.7 0.1-1.1 0.4-0.3 0.3-0.3 0.8zm12.7-0.4q0 0.9-0.6 1.5-0.5 0.6-1.5 0.8v0.1q1.2 0.1 1.8 0.8 0.6 0.6 0.6 1.6 0 1.4-1 2.2-1 0.7-2.8 0.7-0.8 0-1.5-0.1-0.6-0.1-1.2-0.4v-1.1q0.6 0.3 1.3 0.5 0.8 0.2 1.4 0.2 2.6 0 2.6-2.1 0-1.8-2.8-1.8h-1v-1h1q1.1 0 1.8-0.5 0.7-0.5 0.7-1.4 0-0.7-0.5-1.2-0.5-0.4-1.4-0.4-0.6 0-1.2 0.2-0.6 0.2-1.3 0.7l-0.6-0.8q0.6-0.5 1.4-0.8 0.8-0.2 1.7-0.2 1.5 0 2.3 0.6 0.8 0.7 0.8 1.9zm8.4 7.6h-6.6v-1l2.6-2.6q1.2-1.2 1.6-1.8 0.4-0.5 0.6-1 0.2-0.5 0.2-1 0-0.8-0.5-1.3-0.5-0.5-1.3-0.5-0.7 0-1.2 0.2-0.6 0.2-1.3 0.8l-0.6-0.8q1.4-1.1 3-1.1 1.5 0 2.3 0.7 0.8 0.7 0.8 1.9 0 1-0.6 1.9-0.5 0.9-2 2.4l-2.2 2.1h5.2zm8-5q0 2.6-0.8 3.9-0.8 1.3-2.5 1.3-1.6 0-2.4-1.3-0.9-1.3-0.9-3.9 0-2.6 0.8-3.8 0.9-1.3 2.5-1.3 1.7 0 2.5 1.3 0.8 1.3 0.8 3.8zm-5.4 0q0 2.2 0.5 3.2 0.5 1 1.6 1 1.2 0 1.7-1 0.5-1 0.5-3.2 0-2.1-0.5-3.1-0.5-1-1.7-1-1.1 0-1.6 1-0.5 1-0.5 3.1zm13.5 0q0 2.6-0.9 3.9-0.8 1.3-2.5 1.3-1.6 0-2.4-1.3-0.9-1.3-0.9-3.9 0-2.6 0.9-3.8 0.8-1.3 2.4-1.3 1.7 0 2.5 1.3 0.9 1.3 0.9 3.8zm-5.5 0q0 2.2 0.5 3.2 0.5 1 1.6 1 1.2 0 1.7-1 0.5-1 0.5-3.2 0-2.1-0.5-3.1-0.5-1-1.7-1-1.1 0-1.6 1-0.5 1-0.5 3.1zm13.5 0q0 2.6-0.9 3.9-0.8 1.3-2.4 1.3-1.7 0-2.5-1.3-0.8-1.3-0.8-3.9 0-2.6 0.8-3.8 0.8-1.3 2.5-1.3 1.6 0 2.4 1.3 0.9 1.3 0.9 3.8zm-5.5 0q0 2.2 0.5 3.2 0.5 1 1.7 1 1.1 0 1.6-1 0.5-1 0.5-3.2 0-2.1-0.5-3.1-0.5-1-1.6-1-1.2 0-1.7 1-0.5 1-0.5 3.1z"/></svg>